<svg width="65" height="37" viewBox="0 0 65 37" fill="none" xmlns="http://www.w3.org/2000/svg">
<path d="M32.024 16.268C31.928 16.156 31.8 16.048 31.64 15.944C31.48 15.84 31.3 15.748 31.1 15.668C30.9 15.58 30.68 15.512 30.44 15.464C30.208 15.408 29.964 15.38 29.708 15.38C29.052 15.38 28.568 15.504 28.256 15.752C27.944 16 27.788 16.34 27.788 16.772C27.788 17.076 27.868 17.316 28.028 17.492C28.188 17.668 28.432 17.812 28.76 17.924C29.096 18.036 29.52 18.152 30.032 18.272C30.624 18.4 31.136 18.556 31.568 18.74C32 18.924 32.332 19.172 32.564 19.484C32.796 19.788 32.912 20.196 32.912 20.708C32.912 21.116 32.832 21.472 32.672 21.776C32.52 22.072 32.304 22.32 32.024 22.52C31.744 22.712 31.416 22.856 31.04 22.952C30.664 23.04 30.256 23.084 29.816 23.084C29.384 23.084 28.96 23.04 28.544 22.952C28.136 22.856 27.748 22.72 27.38 22.544C27.012 22.368 26.668 22.148 26.348 21.884L26.864 20.972C26.992 21.108 27.156 21.244 27.356 21.38C27.564 21.508 27.796 21.628 28.052 21.74C28.316 21.852 28.6 21.944 28.904 22.016C29.208 22.08 29.52 22.112 29.84 22.112C30.448 22.112 30.92 22.004 31.256 21.788C31.592 21.564 31.76 21.24 31.76 20.816C31.76 20.496 31.664 20.24 31.472 20.048C31.288 19.856 31.012 19.696 30.644 19.568C30.276 19.44 29.828 19.312 29.3 19.184C28.724 19.04 28.24 18.884 27.848 18.716C27.456 18.54 27.16 18.312 26.96 18.032C26.768 17.752 26.672 17.388 26.672 16.94C26.672 16.396 26.804 15.936 27.068 15.56C27.332 15.184 27.696 14.9 28.16 14.708C28.624 14.516 29.148 14.42 29.732 14.42C30.116 14.42 30.472 14.46 30.8 14.54C31.136 14.62 31.448 14.732 31.736 14.876C32.024 15.02 32.288 15.192 32.528 15.392L32.024 16.268ZM39.6005 23H38.5445V19.496C38.5445 18.856 38.4285 18.376 38.1965 18.056C37.9725 17.736 37.6485 17.576 37.2245 17.576C36.9525 17.576 36.6765 17.648 36.3965 17.792C36.1245 17.936 35.8845 18.132 35.6765 18.38C35.4685 18.62 35.3165 18.9 35.2205 19.22V23H34.1645V14.24H35.2205V18.08C35.4685 17.632 35.8045 17.28 36.2285 17.024C36.6605 16.76 37.1245 16.628 37.6205 16.628C37.9965 16.628 38.3085 16.696 38.5565 16.832C38.8125 16.96 39.0165 17.144 39.1685 17.384C39.3205 17.624 39.4285 17.904 39.4925 18.224C39.5645 18.536 39.6005 18.88 39.6005 19.256V23ZM40.7506 21.188C40.7506 20.788 40.8626 20.444 41.0866 20.156C41.3186 19.86 41.6346 19.632 42.0346 19.472C42.4346 19.312 42.8986 19.232 43.4266 19.232C43.7066 19.232 44.0026 19.256 44.3146 19.304C44.6266 19.344 44.9026 19.408 45.1426 19.496V19.04C45.1426 18.56 44.9986 18.184 44.7106 17.912C44.4226 17.632 44.0146 17.492 43.4866 17.492C43.1426 17.492 42.8106 17.556 42.4906 17.684C42.1786 17.804 41.8466 17.98 41.4946 18.212L41.1106 17.468C41.5186 17.188 41.9266 16.98 42.3346 16.844C42.7426 16.7 43.1666 16.628 43.6066 16.628C44.4066 16.628 45.0386 16.852 45.5026 17.3C45.9666 17.74 46.1986 18.356 46.1986 19.148V21.8C46.1986 21.928 46.2226 22.024 46.2706 22.088C46.3266 22.144 46.4146 22.176 46.5346 22.184V23C46.4306 23.016 46.3386 23.028 46.2586 23.036C46.1866 23.044 46.1266 23.048 46.0786 23.048C45.8306 23.048 45.6426 22.98 45.5146 22.844C45.3946 22.708 45.3266 22.564 45.3106 22.412L45.2866 22.016C45.0146 22.368 44.6586 22.64 44.2186 22.832C43.7786 23.024 43.3426 23.12 42.9106 23.12C42.4946 23.12 42.1226 23.036 41.7946 22.868C41.4666 22.692 41.2106 22.46 41.0266 22.172C40.8426 21.876 40.7506 21.548 40.7506 21.188ZM44.8306 21.632C44.9266 21.52 45.0026 21.408 45.0586 21.296C45.1146 21.176 45.1426 21.076 45.1426 20.996V20.216C44.8946 20.12 44.6346 20.048 44.3626 20C44.0906 19.944 43.8226 19.916 43.5586 19.916C43.0226 19.916 42.5866 20.024 42.2506 20.24C41.9226 20.448 41.7586 20.736 41.7586 21.104C41.7586 21.304 41.8106 21.5 41.9146 21.692C42.0266 21.876 42.1866 22.028 42.3946 22.148C42.6106 22.268 42.8746 22.328 43.1866 22.328C43.5146 22.328 43.8266 22.264 44.1226 22.136C44.4186 22 44.6546 21.832 44.8306 21.632ZM51.1992 17.66C50.6712 17.668 50.2032 17.804 49.7952 18.068C49.3952 18.324 49.1112 18.68 48.9432 19.136V23H47.8872V16.736H48.8712V18.188C49.0872 17.756 49.3712 17.408 49.7232 17.144C50.0832 16.872 50.4592 16.72 50.8512 16.688C50.9312 16.688 50.9992 16.688 51.0552 16.688C51.1112 16.688 51.1592 16.692 51.1992 16.7V17.66ZM54.8662 23.12C54.3942 23.12 53.9622 23.036 53.5702 22.868C53.1862 22.692 52.8502 22.456 52.5622 22.16C52.2822 21.856 52.0622 21.508 51.9022 21.116C51.7502 20.724 51.6742 20.308 51.6742 19.868C51.6742 19.276 51.8102 18.736 52.0822 18.248C52.3542 17.76 52.7302 17.368 53.2102 17.072C53.6982 16.776 54.2542 16.628 54.8782 16.628C55.5102 16.628 56.0582 16.78 56.5222 17.084C56.9942 17.38 57.3582 17.772 57.6142 18.26C57.8782 18.74 58.0102 19.26 58.0102 19.82C58.0102 19.9 58.0062 19.98 57.9982 20.06C57.9982 20.132 57.9942 20.188 57.9862 20.228H52.7902C52.8222 20.636 52.9342 21 53.1262 21.32C53.3262 21.632 53.5822 21.88 53.8942 22.064C54.2062 22.24 54.5422 22.328 54.9022 22.328C55.2862 22.328 55.6462 22.232 55.9822 22.04C56.3262 21.848 56.5622 21.596 56.6902 21.284L57.6022 21.536C57.4662 21.84 57.2622 22.112 56.9902 22.352C56.7262 22.592 56.4102 22.78 56.0422 22.916C55.6822 23.052 55.2902 23.12 54.8662 23.12ZM52.7542 19.496H57.0262C56.9942 19.088 56.8782 18.728 56.6782 18.416C56.4782 18.104 56.2222 17.86 55.9102 17.684C55.5982 17.508 55.2542 17.42 54.8782 17.42C54.5102 17.42 54.1702 17.508 53.8582 17.684C53.5462 17.86 53.2902 18.104 53.0902 18.416C52.8982 18.728 52.7862 19.088 52.7542 19.496Z" fill="#797979"/>
<path d="M13.3715 12.8759H15V10.1213C14.2115 10.0393 13.4193 9.99883 12.6266 10C10.2705 10 8.65929 11.4379 8.65929 14.0712V16.3407H6V19.4245H8.65929V27.3244H11.847V19.4245H14.4976L14.8961 16.3407H11.847V14.3744C11.847 13.4649 12.0895 12.8759 13.3715 12.8759Z" fill="#797979"/>
</svg>
