<svg width="65" height="37" viewBox="0 0 65 37" fill="none" xmlns="http://www.w3.org/2000/svg">
<g clip-path="url(#clip0_363_71)">
<path d="M34.164 15.44H31.224V23H30.144V15.44H27.204V14.48H34.164V15.44ZM42.0867 16.736H43.1067L40.4427 23H39.5187L38.3067 20.048L37.1067 23H36.1827L33.5187 16.736H34.5267L36.6867 21.956L37.6947 19.388L36.6387 16.748H37.5627L38.3067 18.74L39.0507 16.748H39.9747L38.9307 19.388L39.9387 21.956L42.0867 16.736ZM46.6553 23.12C46.1833 23.12 45.7513 23.036 45.3593 22.868C44.9753 22.692 44.6393 22.456 44.3513 22.16C44.0713 21.856 43.8513 21.508 43.6913 21.116C43.5393 20.724 43.4633 20.308 43.4633 19.868C43.4633 19.276 43.5993 18.736 43.8713 18.248C44.1433 17.76 44.5193 17.368 44.9993 17.072C45.4873 16.776 46.0433 16.628 46.6673 16.628C47.2993 16.628 47.8473 16.78 48.3113 17.084C48.7833 17.38 49.1473 17.772 49.4033 18.26C49.6673 18.74 49.7993 19.26 49.7993 19.82C49.7993 19.9 49.7953 19.98 49.7873 20.06C49.7873 20.132 49.7833 20.188 49.7753 20.228H44.5793C44.6113 20.636 44.7233 21 44.9153 21.32C45.1153 21.632 45.3713 21.88 45.6833 22.064C45.9953 22.24 46.3313 22.328 46.6913 22.328C47.0753 22.328 47.4353 22.232 47.7713 22.04C48.1153 21.848 48.3513 21.596 48.4793 21.284L49.3913 21.536C49.2553 21.84 49.0513 22.112 48.7793 22.352C48.5153 22.592 48.1993 22.78 47.8313 22.916C47.4713 23.052 47.0793 23.12 46.6553 23.12ZM44.5433 19.496H48.8153C48.7833 19.088 48.6673 18.728 48.4673 18.416C48.2673 18.104 48.0113 17.86 47.6993 17.684C47.3873 17.508 47.0433 17.42 46.6673 17.42C46.2993 17.42 45.9593 17.508 45.6473 17.684C45.3353 17.86 45.0793 18.104 44.8793 18.416C44.6873 18.728 44.5753 19.088 44.5433 19.496ZM53.7451 23.12C53.2731 23.12 52.8411 23.036 52.4491 22.868C52.0651 22.692 51.7291 22.456 51.4411 22.16C51.1611 21.856 50.9411 21.508 50.7811 21.116C50.6291 20.724 50.5531 20.308 50.5531 19.868C50.5531 19.276 50.6891 18.736 50.9611 18.248C51.2331 17.76 51.6091 17.368 52.0891 17.072C52.5771 16.776 53.1331 16.628 53.7571 16.628C54.3891 16.628 54.9371 16.78 55.4011 17.084C55.8731 17.38 56.2371 17.772 56.4931 18.26C56.7571 18.74 56.8891 19.26 56.8891 19.82C56.8891 19.9 56.8851 19.98 56.8771 20.06C56.8771 20.132 56.8731 20.188 56.8651 20.228H51.6691C51.7011 20.636 51.8131 21 52.0051 21.32C52.2051 21.632 52.4611 21.88 52.7731 22.064C53.0851 22.24 53.4211 22.328 53.7811 22.328C54.1651 22.328 54.5251 22.232 54.8611 22.04C55.2051 21.848 55.4411 21.596 55.5691 21.284L56.4811 21.536C56.3451 21.84 56.1411 22.112 55.8691 22.352C55.6051 22.592 55.2891 22.78 54.9211 22.916C54.5611 23.052 54.1691 23.12 53.7451 23.12ZM51.6331 19.496H55.9051C55.8731 19.088 55.7571 18.728 55.5571 18.416C55.3571 18.104 55.1011 17.86 54.7891 17.684C54.4771 17.508 54.1331 17.42 53.7571 17.42C53.3891 17.42 53.0491 17.508 52.7371 17.684C52.4251 17.86 52.1691 18.104 51.9691 18.416C51.7771 18.728 51.6651 19.088 51.6331 19.496ZM61.2443 22.688C61.1563 22.728 61.0363 22.78 60.8843 22.844C60.7323 22.908 60.5563 22.964 60.3563 23.012C60.1563 23.06 59.9443 23.084 59.7203 23.084C59.4643 23.084 59.2283 23.04 59.0123 22.952C58.7963 22.856 58.6243 22.712 58.4963 22.52C58.3683 22.32 58.3043 22.072 58.3043 21.776V17.564H57.4523V16.736H58.3043V14.648H59.3603V16.736H60.7643V17.564H59.3603V21.452C59.3763 21.676 59.4523 21.844 59.5883 21.956C59.7243 22.06 59.8843 22.112 60.0683 22.112C60.2763 22.112 60.4683 22.076 60.6443 22.004C60.8203 21.932 60.9363 21.88 60.9923 21.848L61.2443 22.688Z" fill="#797979"/>
<path d="M19.25 13.075C18.5923 13.3603 17.8967 13.549 17.185 13.635C17.9359 13.1864 18.4986 12.4807 18.7687 11.6488C18.0631 12.0688 17.2907 12.3648 16.485 12.5238C15.9465 11.9398 15.2293 11.551 14.4461 11.4185C13.6628 11.286 12.8577 11.4172 12.1571 11.7915C11.4564 12.1659 10.8998 12.7622 10.5746 13.487C10.2494 14.2117 10.1739 15.024 10.36 15.7962C8.93325 15.7241 7.53764 15.3526 6.26382 14.7059C4.99001 14.0592 3.86649 13.1517 2.96625 12.0425C2.6505 12.5939 2.48458 13.2183 2.485 13.8538C2.48388 14.4438 2.62869 15.025 2.90654 15.5456C3.18438 16.0662 3.58664 16.51 4.0775 16.8375C3.50698 16.822 2.94865 16.6689 2.45 16.3912V16.435C2.45428 17.2618 2.74399 18.0617 3.27015 18.6995C3.79631 19.3372 4.5266 19.7737 5.3375 19.935C5.02535 20.03 4.70127 20.0801 4.375 20.0838C4.14915 20.0811 3.92387 20.0606 3.70125 20.0225C3.93217 20.7337 4.37904 21.3553 4.97969 21.8006C5.58034 22.246 6.30488 22.4931 7.0525 22.5075C5.79005 23.5009 4.2314 24.043 2.625 24.0475C2.33252 24.0485 2.04027 24.0309 1.75 23.995C3.39012 25.054 5.30146 25.6161 7.25375 25.6137C8.60098 25.6277 9.93749 25.3731 11.1852 24.8648C12.433 24.3565 13.5669 23.6046 14.5208 22.6532C15.4747 21.7017 16.2295 20.5697 16.741 19.3233C17.2525 18.0769 17.5105 16.741 17.5 15.3937C17.5 15.245 17.5 15.0875 17.5 14.93C18.1866 14.418 18.7788 13.7902 19.25 13.075V13.075Z" fill="#797979"/>
</g>
<defs>
<clipPath id="clip0_363_71">
<rect width="65" height="37" fill="white"/>
</clipPath>
</defs>
</svg>
